<svg xmlns="http://www.w3.org/2000/svg" width="800" height="800" viewBox="0 0 800 800">
  <defs>
    <linearGradient id="liq" x1="0" y1="0" x2="0" y2="1">
      <stop offset="0%" stop-color="#FFD2B0"/><stop offset="25%" stop-color="#FFF1A8"/>
      <stop offset="50%" stop-color="#B7EBB1"/><stop offset="75%" stop-color="#A6D2F4"/>
      <stop offset="100%" stop-color="#D6B5F0"/>
    </linearGradient>
    <radialGradient id="bgSky" cx="50%" cy="42%" r="72%">
      <stop offset="0%" stop-color="#F2F5FF"/><stop offset="100%" stop-color="#C8DEF6"/>
    </radialGradient>
    <radialGradient id="bgPeach" cx="50%" cy="42%" r="75%">
      <stop offset="0%" stop-color="#FFF1E2"/><stop offset="100%" stop-color="#F8C99C"/>
    </radialGradient>
  </defs>
  <rect width="800" height="800" fill="#5B47D6"/>
  <g transform="translate(80,112) scale(16)" fill="none" stroke="#1AA0E6" stroke-width="2" stroke-linecap="round" stroke-linejoin="round">
    <path d="M 12 12 L 12 24 C 12 30, 16 32, 20 32 C 24 32, 28 30, 28 24 L 28 12 Z" fill="white" stroke="none"/>
    <path d="M 12 19 Q 14 17.8, 16 19 T 20 19 T 24 19 T 28 19 L 28 24 C 28 30, 24 32, 20 32 C 16 32, 12 30, 12 24 L 12 19 Z" fill="url(#liq)" stroke="none"/>
    <path d="M22 8 C 22 6, 24 4, 26 6"/>
    <path d="M12 12 L12 24 C 12 30, 16 32, 20 32 C 24 32, 28 30, 28 24 L28 12"/>
    <path d="M11 12 L29 12"/>
    <circle cx="17" cy="18" r="1.2" fill="#1AA0E6" stroke="none"/>
    <circle cx="23" cy="18" r="1.2" fill="#1AA0E6" stroke="none"/>
    <path d="M18 22 Q 20 24, 22 22"/>
    <path d="M14 26 L15.5 26"/><path d="M24.5 26 L26 26"/>
  </g>
</svg>
