<svg xmlns="http://www.w3.org/2000/svg" viewBox="0 0 760 540" width="760" height="540" font-family="Helvetica, Arial, sans-serif">
<rect x="0" y="0" width="760" height="540" fill="#FFFFFF"/>
<text x="20" y="32" font-size="18" font-weight="500" fill="#2C2C2A">How long until an account racks up a $5 charge</text>
<text x="20" y="54" font-size="13" fill="#5F5E5A">Time to accrue $5 of real usage, by account type and how heavily they use it</text>
<rect x="150" y="66" width="11" height="11" rx="2" fill="#1D9E75"/>
<text x="166" y="76" font-size="12" fill="#5F5E5A">Light</text>
<rect x="224.0" y="66" width="11" height="11" rx="2" fill="#BA7517"/>
<text x="240.0" y="76" font-size="12" fill="#5F5E5A">Typical</text>
<rect x="312.4" y="66" width="11" height="11" rx="2" fill="#D85A30"/>
<text x="328.4" y="76" font-size="12" fill="#5F5E5A">Heavy</text>
<line x1="150.0" y1="92" x2="150.0" y2="318" stroke="#D3D1C7"/>
<text x="150.0" y="332" font-size="11" fill="#5F5E5A" text-anchor="middle">1 day</text>
<line x1="275.7" y1="92" x2="275.7" y2="318" stroke="#E5E3DB"/>
<text x="275.7" y="332" font-size="11" fill="#5F5E5A" text-anchor="middle">1 wk</text>
<line x1="370.7" y1="92" x2="370.7" y2="318" stroke="#E5E3DB"/>
<text x="370.7" y="332" font-size="11" fill="#5F5E5A" text-anchor="middle">1 mo</text>
<line x1="441.7" y1="92" x2="441.7" y2="318" stroke="#E5E3DB"/>
<text x="441.7" y="332" font-size="11" fill="#5F5E5A" text-anchor="middle">3 mo</text>
<line x1="531.2" y1="92" x2="531.2" y2="318" stroke="#E5E3DB"/>
<text x="531.2" y="332" font-size="11" fill="#5F5E5A" text-anchor="middle">1 yr</text>
<line x1="635.2" y1="92" x2="635.2" y2="318" stroke="#E5E3DB"/>
<text x="635.2" y="332" font-size="11" fill="#5F5E5A" text-anchor="middle">5 yr</text>
<text x="20" y="104" font-size="13" font-weight="500" fill="#2C2C2A">Solo</text>
<text x="61.6" y="104" font-size="11" fill="#5F5E5A">1 person</text>
<rect x="150.0" y="110" width="530.0" height="16" rx="4" fill="#F1EFE8"/>
<rect x="150.0" y="110" width="518.3" height="16" rx="4" fill="#1D9E75"/>
<text x="145" y="122" font-size="12" fill="#5F5E5A" text-anchor="end">Light</text>
<text x="690" y="122" font-size="12" font-weight="500" fill="#2C2C2A">8.3 yr</text>
<rect x="150.0" y="130" width="530.0" height="16" rx="4" fill="#F1EFE8"/>
<rect x="150.0" y="130" width="369.5" height="16" rx="4" fill="#BA7517"/>
<text x="145" y="142" font-size="12" fill="#5F5E5A" text-anchor="end">Typical</text>
<text x="690" y="142" font-size="12" font-weight="500" fill="#2C2C2A">10.0 mo</text>
<rect x="150.0" y="150" width="530.0" height="16" rx="4" fill="#F1EFE8"/>
<rect x="150.0" y="150" width="235.1" height="16" rx="4" fill="#D85A30"/>
<text x="145" y="162" font-size="12" fill="#5F5E5A" text-anchor="end">Heavy</text>
<text x="690" y="162" font-size="12" font-weight="500" fill="#2C2C2A">1.2 mo</text>
<text x="20" y="178" font-size="13" font-weight="500" fill="#2C2C2A">Lab</text>
<text x="53.2" y="178" font-size="11" fill="#5F5E5A">6 seats</text>
<rect x="150.0" y="184" width="530.0" height="16" rx="4" fill="#F1EFE8"/>
<rect x="150.0" y="184" width="402.5" height="16" rx="4" fill="#1D9E75"/>
<text x="145" y="196" font-size="12" fill="#5F5E5A" text-anchor="end">Light</text>
<text x="690" y="196" font-size="12" font-weight="500" fill="#2C2C2A">1.4 yr</text>
<rect x="150.0" y="204" width="530.0" height="16" rx="4" fill="#F1EFE8"/>
<rect x="150.0" y="204" width="253.7" height="16" rx="4" fill="#BA7517"/>
<text x="145" y="216" font-size="12" fill="#5F5E5A" text-anchor="end">Typical</text>
<text x="690" y="216" font-size="12" font-weight="500" fill="#2C2C2A">1.7 mo</text>
<rect x="150.0" y="224" width="530.0" height="16" rx="4" fill="#F1EFE8"/>
<rect x="150.0" y="224" width="119.4" height="16" rx="4" fill="#D85A30"/>
<text x="145" y="236" font-size="12" fill="#5F5E5A" text-anchor="end">Heavy</text>
<text x="690" y="236" font-size="12" font-weight="500" fill="#2C2C2A">6 days</text>
<text x="20" y="252" font-size="13" font-weight="500" fill="#2C2C2A">Dept</text>
<text x="61.6" y="252" font-size="11" fill="#5F5E5A">30 seats</text>
<rect x="150.0" y="258" width="530.0" height="16" rx="4" fill="#F1EFE8"/>
<rect x="150.0" y="258" width="298.5" height="16" rx="4" fill="#1D9E75"/>
<text x="145" y="270" font-size="12" fill="#5F5E5A" text-anchor="end">Light</text>
<text x="690" y="270" font-size="12" font-weight="500" fill="#2C2C2A">3.3 mo</text>
<rect x="150.0" y="278" width="530.0" height="16" rx="4" fill="#F1EFE8"/>
<rect x="150.0" y="278" width="149.7" height="16" rx="4" fill="#BA7517"/>
<text x="145" y="290" font-size="12" fill="#5F5E5A" text-anchor="end">Typical</text>
<text x="690" y="290" font-size="12" font-weight="500" fill="#2C2C2A">1 wk</text>
<rect x="150.0" y="298" width="530.0" height="16" rx="4" fill="#F1EFE8"/>
<rect x="150.0" y="298" width="15.4" height="16" rx="4" fill="#D85A30"/>
<text x="145" y="310" font-size="12" fill="#5F5E5A" text-anchor="end">Heavy</text>
<text x="690" y="310" font-size="12" font-weight="500" fill="#2C2C2A">1 day</text>
<text x="20" y="360" font-size="11" fill="#5F5E5A">Per-person usage assumed below. Lab = 6 seats, Dept = 30 (5 labs). Time axis is logarithmic. Real numbers pending beta.</text>
<text x="20" y="392" font-size="13" font-weight="500" fill="#2C2C2A">What light, typical, and heavy actually mean (per person / month)</text>
<rect x="20" y="404" width="233" height="120" rx="8" fill="#E1F5EE"/>
<text x="34" y="428" font-size="13" font-weight="500" fill="#0F6E56">Light  ~$0.05 / mo</text>
<circle cx="37" cy="446" r="2" fill="#0F6E56"/>
<text x="46" y="450" font-size="11.5" fill="#0F6E56">~2 docs shared</text>
<circle cx="37" cy="465" r="2" fill="#0F6E56"/>
<text x="46" y="469" font-size="11.5" fill="#0F6E56">~1 live co-edit</text>
<circle cx="37" cy="484" r="2" fill="#0F6E56"/>
<text x="46" y="488" font-size="11.5" fill="#0F6E56">~0.5 GB synced</text>
<circle cx="37" cy="503" r="2" fill="#0F6E56"/>
<text x="46" y="507" font-size="11.5" fill="#0F6E56">a few AI asks</text>
<rect x="267" y="404" width="233" height="120" rx="8" fill="#FAEEDA"/>
<text x="281" y="428" font-size="13" font-weight="500" fill="#854F0B">Typical  ~$0.50 / mo</text>
<circle cx="284" cy="446" r="2" fill="#854F0B"/>
<text x="293" y="450" font-size="11.5" fill="#854F0B">~12 docs shared</text>
<circle cx="284" cy="465" r="2" fill="#854F0B"/>
<text x="293" y="469" font-size="11.5" fill="#854F0B">co-edits ~weekly</text>
<circle cx="284" cy="484" r="2" fill="#854F0B"/>
<text x="293" y="488" font-size="11.5" fill="#854F0B">~2-3 GB synced</text>
<circle cx="284" cy="503" r="2" fill="#854F0B"/>
<text x="293" y="507" font-size="11.5" fill="#854F0B">~75 AI asks</text>
<rect x="514" y="404" width="233" height="120" rx="8" fill="#FAECE7"/>
<text x="528" y="428" font-size="13" font-weight="500" fill="#993C1D">Heavy  ~$4 / mo</text>
<circle cx="531" cy="446" r="2" fill="#993C1D"/>
<text x="540" y="450" font-size="11.5" fill="#993C1D">~50+ docs shared</text>
<circle cx="531" cy="465" r="2" fill="#993C1D"/>
<text x="540" y="469" font-size="11.5" fill="#993C1D">co-edits most days</text>
<circle cx="531" cy="484" r="2" fill="#993C1D"/>
<text x="540" y="488" font-size="11.5" fill="#993C1D">~10+ GB synced</text>
<circle cx="531" cy="503" r="2" fill="#993C1D"/>
<text x="540" y="507" font-size="11.5" fill="#993C1D">~500 big AI asks</text>
</svg>