<svg viewBox="-28 -24 56 50" xmlns="http://www.w3.org/2000/svg">
  <defs>
    <linearGradient id="liq-lab-pi" x1="0" y1="0" x2="0" y2="1">
      <stop offset="0%" stop-color="#FFD2B0"/>
      <stop offset="25%" stop-color="#FFF1A8"/>
      <stop offset="50%" stop-color="#B7EBB1"/>
      <stop offset="75%" stop-color="#A6D2F4"/>
      <stop offset="100%" stop-color="#D6B5F0"/>
    </linearGradient>
    <linearGradient id="liq-lab-left" x1="0" y1="0" x2="0" y2="1">
      <stop offset="0%" stop-color="#FFD2B0"/>
      <stop offset="25%" stop-color="#FFF1A8"/>
      <stop offset="50%" stop-color="#B7EBB1"/>
      <stop offset="75%" stop-color="#A6D2F4"/>
      <stop offset="100%" stop-color="#D6B5F0"/>
    </linearGradient>
    <linearGradient id="liq-lab-right" x1="0" y1="0" x2="0" y2="1">
      <stop offset="0%" stop-color="#FFD2B0"/>
      <stop offset="25%" stop-color="#FFF1A8"/>
      <stop offset="50%" stop-color="#B7EBB1"/>
      <stop offset="75%" stop-color="#A6D2F4"/>
      <stop offset="100%" stop-color="#D6B5F0"/>
    </linearGradient>
  </defs>
  <!-- floor line -->
  <path d="M -22 18.5 L 22 18.5" stroke="#1AA0E6" stroke-width="1.4" stroke-linecap="round"/>
  <!-- shadow ellipse -->
  <ellipse cx="0" cy="19.6" rx="20" ry="1.8" fill="#1AA0E6" opacity=".08"/>

  <!-- left teammate: glasses, scale 0.5, at (-13.5, 5.5) -->
  <g transform="translate(-13.5 5.5) scale(.5)" stroke="#1AA0E6" stroke-width="1.4" stroke-linecap="round" stroke-linejoin="round" fill="none">
    <path d="M -8 -6 L -8 6 C -8 12, -4 14, 0 14 C 4 14, 8 12, 8 6 L 8 -6 Z" fill="white" stroke="none"/>
    <path d="M -8 1 Q -6 -0.2, -4 1 T 0 1 T 4 1 T 8 1 L 8 6 C 8 12, 4 14, 0 14 C -4 14, -8 12, -8 6 L -8 1 Z" fill="url(#liq-lab-left)" stroke="none"/>
    <path d="M 2 -10 C 2 -12, 4 -14, 6 -12"/>
    <path d="M -8 -6 L -8 6 C -8 12, -4 14, 0 14 C 4 14, 8 12, 8 6 L 8 -6"/>
    <path d="M -9 -6 L 9 -6"/>
    <circle cx="-3" cy="0" r="1.2" fill="#1AA0E6" stroke="none"/>
    <circle cx="3" cy="0" r="1.2" fill="#1AA0E6" stroke="none"/>
    <!-- glasses -->
    <g stroke="#1AA0E6" stroke-width="0.7" fill="none">
      <circle cx="-3" cy="0" r="2.1"/>
      <circle cx="3" cy="0" r="2.1"/>
      <path d="M -0.9 0 L 0.9 0"/>
      <path d="M -5.1 -0.3 L -6.2 -0.7"/>
      <path d="M 5.1 -0.3 L 6.2 -0.7"/>
    </g>
    <path d="M -2 4 Q 0 6, 2 4"/>
    <path d="M -6 8 L -4.5 8"/>
    <path d="M 4.5 8 L 6 8"/>
  </g>

  <!-- right teammate: plain, scale 0.5, at (13.5, 5.5) -->
  <g transform="translate(13.5 5.5) scale(.5)" stroke="#1AA0E6" stroke-width="1.4" stroke-linecap="round" stroke-linejoin="round" fill="none">
    <path d="M -8 -6 L -8 6 C -8 12, -4 14, 0 14 C 4 14, 8 12, 8 6 L 8 -6 Z" fill="white" stroke="none"/>
    <path d="M -8 1 Q -6 -0.2, -4 1 T 0 1 T 4 1 T 8 1 L 8 6 C 8 12, 4 14, 0 14 C -4 14, -8 12, -8 6 L -8 1 Z" fill="url(#liq-lab-right)" stroke="none"/>
    <path d="M 2 -10 C 2 -12, 4 -14, 6 -12"/>
    <path d="M -8 -6 L -8 6 C -8 12, -4 14, 0 14 C 4 14, 8 12, 8 6 L 8 -6"/>
    <path d="M -9 -6 L 9 -6"/>
    <circle cx="-3" cy="0" r="1.2" fill="#1AA0E6" stroke="none"/>
    <circle cx="3" cy="0" r="1.2" fill="#1AA0E6" stroke="none"/>
    <path d="M -2 4 Q 0 6, 2 4"/>
    <path d="M -6 8 L -4.5 8"/>
    <path d="M 4.5 8 L 6 8"/>
  </g>

  <!-- PI BeakerBot: scale 1.12, at (0, 1), front and center -->
  <g transform="translate(0 1) scale(1.12)" stroke="#1AA0E6" stroke-width="1.4" stroke-linecap="round" stroke-linejoin="round" fill="none">
    <path d="M -8 -6 L -8 6 C -8 12, -4 14, 0 14 C 4 14, 8 12, 8 6 L 8 -6 Z" fill="white" stroke="none"/>
    <path d="M -8 1 Q -6 -0.2, -4 1 T 0 1 T 4 1 T 8 1 L 8 6 C 8 12, 4 14, 0 14 C -4 14, -8 12, -8 6 L -8 1 Z" fill="url(#liq-lab-pi)" stroke="none"/>
    <path d="M 2 -10 C 2 -12, 4 -14, 6 -12"/>
    <path d="M -8 -6 L -8 6 C -8 12, -4 14, 0 14 C 4 14, 8 12, 8 6 L 8 -6"/>
    <path d="M -9 -6 L 9 -6"/>
    <circle cx="-3" cy="0" r="1.2" fill="#1AA0E6" stroke="none"/>
    <circle cx="3" cy="0" r="1.2" fill="#1AA0E6" stroke="none"/>
    <path d="M -2 4 Q 0 6, 2 4"/>
    <path d="M -6 8 L -4.5 8"/>
    <path d="M 4.5 8 L 6 8"/>
  </g>
</svg>
