<svg xmlns="http://www.w3.org/2000/svg" viewBox="0 0 2048 1152" width="2048" height="1152">
  <!-- ResearchOS banner, BeakerBot mark + wordmark lockup. Font: Geist Bold (falls back to Inter / system).
       Centering is tuned for the Geist metrics; if you re-cut the text, the precise source is tools/beakerbot-avatar/banner.html. -->
  <defs>
    <linearGradient id="bg" x1="0" y1="0" x2="1" y2="0">
      <stop offset="0%" stop-color="#FFD2B0" /><stop offset="25%" stop-color="#FFF1A8" />
      <stop offset="50%" stop-color="#B7EBB1" /><stop offset="75%" stop-color="#A6D2F4" />
      <stop offset="100%" stop-color="#D6B5F0" />
    </linearGradient>
    <linearGradient id="liq" x1="0" y1="0" x2="0" y2="1">
      <stop offset="0%" stop-color="#FFD2B0" /><stop offset="25%" stop-color="#FFF1A8" />
      <stop offset="50%" stop-color="#B7EBB1" /><stop offset="75%" stop-color="#A6D2F4" />
      <stop offset="100%" stop-color="#D6B5F0" />
    </linearGradient>
  </defs>
  <rect width="2048" height="1152" fill="url(#bg)" />
  <g transform="translate(387 403) scale(9.6)" fill="none" stroke="#1AA0E6" stroke-width="2"
     stroke-linecap="round" stroke-linejoin="round">
    <path d="M 12 12 L 12 24 C 12 30, 16 32, 20 32 C 24 32, 28 30, 28 24 L 28 12 Z" fill="white" stroke="none" />
    <path d="M 12 19 Q 14 17.8, 16 19 T 20 19 T 24 19 T 28 19 L 28 24 C 28 30, 24 32, 20 32 C 16 32, 12 30, 12 24 L 12 19 Z" fill="url(#liq)" stroke="none" />
    <path d="M22 8 C 22 6, 24 4, 26 6" />
    <path d="M12 12 L12 24 C 12 30, 16 32, 20 32 C 24 32, 28 30, 28 24 L28 12" />
    <path d="M11 12 L29 12" />
    <circle cx="17" cy="18" r="1.2" fill="#1AA0E6" stroke="none" />
    <circle cx="23" cy="18" r="1.2" fill="#1AA0E6" stroke="none" />
    <path d="M18 22 Q 20 24, 22 22" />
    <path d="M14 26 L15.5 26" /><path d="M24.5 26 L26 26" />
  </g>
  <text x="709" y="576" text-anchor="start" dominant-baseline="central"
        font-family="Geist, Inter, system-ui, -apple-system, sans-serif"
        font-weight="800" font-size="165" letter-spacing="-5" fill="#111827">ResearchOS</text>
</svg>
